G04 start of page 11 for group -4014 idx -4014 *
G04 Title: (unknown), bottompaste *
G04 Creator: pcb 20140316 *
G04 CreationDate: Sat Sep  5 02:44:50 2015 UTC *
G04 For: dima *
G04 Format: Gerber/RS-274X *
G04 PCB-Dimensions (mil): 944.88 944.88 *
G04 PCB-Coordinate-Origin: lower left *
%MOIN*%
%FSLAX25Y25*%
%LNBOTTOMPASTE*%
%ADD78C,0.0787*%
%ADD77C,0.0001*%
G54D77*G36*
X28543Y42323D02*Y36417D01*
X34449D01*
Y42323D01*
X28543D01*
G37*
G36*
Y58071D02*Y52165D01*
X34449D01*
Y58071D01*
X28543D01*
G37*
G36*
X60039Y42323D02*Y36417D01*
X65945D01*
Y42323D01*
X60039D01*
G37*
G36*
Y58071D02*Y52165D01*
X65945D01*
Y58071D01*
X60039D01*
G37*
G54D78*X86694Y42260D02*X87008Y47244D01*
X85759Y37355D02*X86694Y42260D01*
X84215Y32606D02*X85759Y37355D01*
X82089Y28088D02*X84215Y32606D01*
X79414Y23872D02*X82089Y28088D01*
X76231Y20024D02*X79414Y23872D01*
X72591Y16606D02*X76231Y20024D01*
X68551Y13670D02*X72591Y16606D01*
X64175Y11265D02*X68551Y13670D01*
X59532Y9426D02*X64175Y11265D01*
X54695Y8185D02*X59532Y9426D01*
X49741Y7559D02*X54695Y8185D01*
X44747Y7559D02*X49741D01*
X39793Y8185D02*X44747Y7559D01*
X34956Y9426D02*X39793Y8185D01*
X30313Y11265D02*X34956Y9426D01*
X25937Y13670D02*X30313Y11265D01*
X21898Y16606D02*X25937Y13670D01*
X18257Y20024D02*X21898Y16606D01*
X15074Y23872D02*X18257Y20024D01*
X12399Y28088D02*X15074Y23872D01*
X10273Y32606D02*X12399Y28088D01*
X8730Y37355D02*X10273Y32606D01*
X7794Y42260D02*X8730Y37355D01*
X7480Y47244D02*X7794Y42260D01*
X7480Y47244D02*X7794Y52228D01*
X8730Y57133D01*
X10273Y61882D01*
X12399Y66400D01*
X15074Y70617D01*
X18257Y74464D01*
X21898Y77883D01*
X25937Y80818D01*
X30313Y83224D01*
X34956Y85062D01*
X39793Y86304D01*
X44747Y86930D01*
X49741D01*
X54695Y86304D01*
X59532Y85062D01*
X64175Y83224D01*
X68551Y80818D01*
X72591Y77883D01*
X76231Y74464D01*
X79414Y70617D01*
X82089Y66400D01*
X84215Y61882D01*
X85759Y57133D01*
X86694Y52228D01*
X87008Y47244D01*
M02*
