G04 start of page 10 for group -4015 idx -4015 *
G04 Title: (unknown), toppaste *
G04 Creator: pcb 20140316 *
G04 CreationDate: Sat Sep  5 02:44:50 2015 UTC *
G04 For: dima *
G04 Format: Gerber/RS-274X *
G04 PCB-Dimensions (mil): 944.88 944.88 *
G04 PCB-Coordinate-Origin: lower left *
%MOIN*%
%FSLAX25Y25*%
%LNTOPPASTE*%
%ADD76R,0.0197X0.0197*%
%ADD75R,0.0340X0.0340*%
%ADD74R,0.0200X0.0200*%
%ADD73R,0.0512X0.0512*%
%ADD72R,0.0610X0.0610*%
%ADD71R,0.0295X0.0295*%
%ADD70C,0.0197*%
%ADD69C,0.0001*%
G54D69*G36*
X29519Y36117D02*Y34149D01*
X31488D01*
Y36117D01*
X29519D01*
G37*
G54D70*X30504Y43007D03*
G54D71*X24012Y37789D02*X24996D01*
X24012Y42907D02*X24996D01*
G54D72*X43263Y65002D02*Y51813D01*
X25744Y65002D02*Y51813D01*
G54D71*X54122Y22899D02*Y21915D01*
X49004Y22899D02*Y21915D01*
G54D73*X54503Y49600D02*Y48814D01*
X61589Y49600D02*Y48814D01*
G54D74*X39242Y43307D02*X45742D01*
X39242Y38307D02*X45742D01*
X39242Y33307D02*X45742D01*
X39242Y28307D02*X45742D01*
X59742D02*X66242D01*
X59742Y33307D02*X66242D01*
X59742Y38307D02*X66242D01*
X59742Y43307D02*X66242D01*
G54D71*X71212Y33466D02*X72196D01*
X71212Y28348D02*X72196D01*
G54D75*X76004Y59207D02*Y58607D01*
X68204Y59207D02*Y58607D01*
X72104Y51007D02*Y50407D01*
G54D76*X49771Y64769D02*X51837D01*
X49771Y61029D02*X51837D01*
X49771Y57289D02*X51837D01*
X60498Y64769D02*X62565D01*
X60498Y61029D02*X62565D01*
X60498Y57289D02*X62565D01*
M02*
