G04 start of page 2 for group 0 idx 0 *
G04 Title: (unknown), component *
G04 Creator: pcb 20140316 *
G04 CreationDate: Sat Sep  5 02:44:50 2015 UTC *
G04 For: dima *
G04 Format: Gerber/RS-274X *
G04 PCB-Dimensions (mil): 944.88 944.88 *
G04 PCB-Coordinate-Origin: lower left *
%MOIN*%
%FSLAX25Y25*%
%LNTOP*%
%ADD36C,0.0200*%
%ADD35C,0.0350*%
%ADD34C,0.0439*%
%ADD33C,0.0600*%
%ADD32R,0.0340X0.0340*%
%ADD31R,0.0512X0.0512*%
%ADD30R,0.0200X0.0200*%
%ADD29R,0.0295X0.0295*%
%ADD28C,0.0197*%
%ADD27C,0.0001*%
%ADD26R,0.0197X0.0197*%
%ADD25R,0.0610X0.0610*%
%ADD24C,0.0550*%
%ADD23C,0.0257*%
%ADD22C,0.1037*%
%ADD21C,0.0565*%
%ADD20C,0.0486*%
%ADD19C,0.0500*%
%ADD18C,0.0644*%
%ADD17C,0.0336*%
%ADD16C,0.0415*%
%ADD15C,0.0250*%
%ADD14C,0.0494*%
%ADD13C,0.0100*%
%ADD12C,0.0950*%
%ADD11C,0.0407*%
G54D11*X54504Y49207D02*Y42907D01*
G54D12*X64089Y47707D02*X69704D01*
G54D13*X72184Y50787D02*X72104Y50707D01*
X61531Y57289D02*Y55880D01*
X62504Y54907D01*
X74004D02*X76004Y56907D01*
Y58407D01*
X74004Y54907D02*X62504D01*
X68204Y58907D02*X68898Y59601D01*
G54D14*X68002Y60856D02*Y65428D01*
G54D15*X61531Y64769D02*X67045D01*
X67636Y65359D01*
G54D16*X56299Y58268D02*X50787D01*
G54D13*Y57305D02*X50804Y57289D01*
Y58284D02*X50787Y58268D01*
G54D17*X50820Y60640D02*Y57895D01*
G54D18*X59004Y35907D02*X63504D01*
G54D15*X62992Y28307D02*X71663D01*
X71704Y28348D01*
Y33466D02*X63151D01*
G54D11*X68110Y21654D02*Y27520D01*
G54D15*X54122Y22407D02*Y31025D01*
G54D11*X59004Y35907D01*
G54D14*X42504Y29907D02*Y31907D01*
G54D19*X43504Y26907D02*X47504Y22907D01*
G54D13*X48819Y21592D02*X48788Y21622D01*
G54D11*X54504Y42907D02*X50004Y38407D01*
G54D15*X42592D01*
X35827Y38189D02*X42374D01*
X42592Y38407D02*X42374Y38189D01*
G54D11*X25004Y37289D02*X27385Y34907D01*
G54D20*X26885Y35407D02*X30004D01*
G54D15*X30289D02*X33045D01*
X35827Y38189D01*
X36220D02*X33465Y35433D01*
G54D11*Y30315D01*
G54D15*X43523Y59907D02*X43504Y59887D01*
G54D21*Y44907D01*
G54D22*X27504Y46407D02*Y48907D01*
G54D23*X50787Y69291D02*Y64785D01*
G54D13*X50804Y64769D01*
G54D15*X25744Y58407D02*Y61806D01*
G54D24*X35370Y71432D01*
G54D25*X43263Y65002D02*Y51813D01*
G54D26*X49771Y64769D02*X51837D01*
X49771Y61029D02*X51837D01*
X49771Y57289D02*X51837D01*
G54D27*G36*
X29519Y36117D02*Y34149D01*
X31488D01*
Y36117D01*
X29519D01*
G37*
G54D28*X30504Y43007D03*
G54D29*X24012Y37789D02*X24996D01*
X24012Y42907D02*X24996D01*
G54D25*X25744Y65002D02*Y51813D01*
G54D30*X39242Y43307D02*X45742D01*
X39242Y38307D02*X45742D01*
G54D29*X54122Y22899D02*Y21915D01*
X49004Y22899D02*Y21915D01*
G54D30*X39242Y33307D02*X45742D01*
X39242Y28307D02*X45742D01*
G54D31*X54503Y49600D02*Y48814D01*
X61589Y49600D02*Y48814D01*
G54D30*X59742Y38307D02*X66242D01*
X59742Y43307D02*X66242D01*
G54D32*X76004Y59207D02*Y58607D01*
X68204Y59207D02*Y58607D01*
G54D26*X60498Y64769D02*X62565D01*
X60498Y61029D02*X62565D01*
X60498Y57289D02*X62565D01*
G54D30*X59742Y28307D02*X66242D01*
X59742Y33307D02*X66242D01*
G54D29*X71212Y33466D02*X72196D01*
X71212Y28348D02*X72196D01*
G54D32*X72104Y51007D02*Y50407D01*
G54D33*X32677Y30709D03*
X71738Y45592D03*
X43963Y22508D03*
X53937Y31102D03*
X67636Y65359D03*
X35370Y71432D03*
X50787Y70866D03*
G54D34*X56299Y58268D03*
G54D33*X67717Y22441D03*
G54D35*G54D36*G54D35*M02*
