G04 start of page 8 for group -4079 idx -4079 *
G04 Title: (unknown), topsilk *
G04 Creator: pcb 20140316 *
G04 CreationDate: Sat Sep  5 02:44:50 2015 UTC *
G04 For: dima *
G04 Format: Gerber/RS-274X *
G04 PCB-Dimensions (mil): 944.88 944.88 *
G04 PCB-Coordinate-Origin: lower left *
%MOIN*%
%FSLAX25Y25*%
%LNTOPSILK*%
%ADD67C,0.0100*%
%ADD66C,0.0080*%
G54D66*X57653Y51962D02*X58439D01*
X57653Y46452D02*X58439D01*
G54D67*X37242Y45307D02*Y26307D01*
X68242D01*
Y45307D01*
X37242D02*X50242D01*
X68242D02*X55242D01*
X50242D02*G75*G03X55242Y45307I2500J0D01*G01*
X78504Y61807D02*Y47907D01*
X65704Y61807D02*X78504D01*
X65704D02*Y47907D01*
X78504D01*
X49893Y66646D02*X64443D01*
X47893Y64646D02*Y55411D01*
X64443D01*
Y66646D02*Y55411D01*
X53904Y14572D02*X55204D01*
X53204Y15272D02*X53904Y14572D01*
X53204Y17872D02*Y15272D01*
Y17872D02*X53904Y18572D01*
X55204D01*
X56404Y18072D02*X56904Y18572D01*
X58404D01*
X58904Y18072D01*
Y17072D01*
X56404Y14572D02*X58904Y17072D01*
X56404Y14572D02*X58904D01*
X59698Y20543D02*X60998D01*
X58998Y21243D02*X59698Y20543D01*
X58998Y23843D02*Y21243D01*
Y23843D02*X59698Y24543D01*
X60998D01*
X62198Y23743D02*X62998Y24543D01*
Y20543D01*
X62198D02*X63698D01*
X74672Y33157D02*X76672D01*
X77172Y32657D01*
Y31657D01*
X76672Y31157D02*X77172Y31657D01*
X75172Y31157D02*X76672D01*
X75172Y33157D02*Y29157D01*
X75972Y31157D02*X77172Y29157D01*
X78372Y32657D02*X78872Y33157D01*
X80372D01*
X80872Y32657D01*
Y31657D01*
X78372Y29157D02*X80872Y31657D01*
X78372Y29157D02*X80872D01*
X22855Y32784D02*X25355D01*
X22855Y28784D02*X25355Y32784D01*
X22855Y28784D02*X25355D01*
X26555Y31984D02*X27355Y32784D01*
Y28784D01*
X26555D02*X28055D01*
X16148Y38826D02*X17448D01*
X15448Y39526D02*X16148Y38826D01*
X15448Y42126D02*Y39526D01*
Y42126D02*X16148Y42826D01*
X17448D01*
X18648Y42326D02*X19148Y42826D01*
X20148D01*
X20648Y42326D01*
X20148Y38826D02*X20648Y39326D01*
X19148Y38826D02*X20148D01*
X18648Y39326D02*X19148Y38826D01*
Y41026D02*X20148D01*
X20648Y42326D02*Y41526D01*
Y40526D02*Y39326D01*
Y40526D02*X20148Y41026D01*
X20648Y41526D02*X20148Y41026D01*
X30241Y74341D02*Y70341D01*
X32241D01*
X33441Y73541D02*X34241Y74341D01*
Y70341D01*
X33441D02*X34941D01*
X32541Y24917D02*Y21417D01*
X33041Y20917D01*
X34041D01*
X34541Y21417D01*
Y24917D02*Y21417D01*
X35741Y24417D02*X36241Y24917D01*
X37741D01*
X38241Y24417D01*
Y23417D01*
X35741Y20917D02*X38241Y23417D01*
X35741Y20917D02*X38241D01*
X69952Y45390D02*Y42390D01*
Y45390D02*X70452Y45890D01*
X71452D01*
X71952Y45390D01*
Y42890D01*
X70952Y41890D02*X71952Y42890D01*
X70452Y41890D02*X70952D01*
X69952Y42390D02*X70452Y41890D01*
X70952Y43390D02*X71952Y41890D01*
X73152Y45090D02*X73952Y45890D01*
Y41890D01*
X73152D02*X74652D01*
X57642Y72453D02*Y68953D01*
X58142Y68453D01*
X59142D01*
X59642Y68953D01*
Y72453D02*Y68953D01*
X60842Y71653D02*X61642Y72453D01*
Y68453D01*
X60842D02*X62342D01*
M02*
