G04 start of page 9 for group -4078 idx -4078 *
G04 Title: (unknown), bottomsilk *
G04 Creator: pcb 20140316 *
G04 CreationDate: Sat Sep  5 02:44:50 2015 UTC *
G04 For: dima *
G04 Format: Gerber/RS-274X *
G04 PCB-Dimensions (mil): 944.88 944.88 *
G04 PCB-Coordinate-Origin: lower left *
%MOIN*%
%FSLAX25Y25*%
%LNBOTTOMSILK*%
%ADD68C,0.0100*%
G54D68*X30138Y73267D02*Y78147D01*
X31724Y73267D02*X32578Y74121D01*
Y77293D01*
X31724Y78147D02*X32578Y77293D01*
X29528Y78147D02*X31724D01*
X29528Y73267D02*X31724D01*
X34042Y74487D02*Y74609D01*
Y76317D02*Y78147D01*
X35872Y76317D02*Y78147D01*
Y76317D02*X36482Y75707D01*
X37092D01*
X37702Y76317D01*
Y78147D01*
Y76317D02*X38312Y75707D01*
X38922D01*
X39532Y76317D01*
Y78147D01*
X35262Y75707D02*X35872Y76317D01*
X42826Y75707D02*X43436Y76317D01*
X41606Y75707D02*X42826D01*
X40996Y76317D02*X41606Y75707D01*
X40996Y76317D02*Y77537D01*
X41606Y78147D01*
X43436Y75707D02*Y77537D01*
X44046Y78147D01*
X41606D02*X42826D01*
X43436Y77537D01*
X47706Y73267D02*Y78147D01*
Y75707D02*X50146Y73267D01*
X47706Y75707D02*X50146Y78147D01*
X51610Y76317D02*Y77537D01*
Y76317D02*X52220Y75707D01*
X53440D01*
X54050Y76317D01*
Y77537D01*
X53440Y78147D02*X54050Y77537D01*
X52220Y78147D02*X53440D01*
X51610Y77537D02*X52220Y78147D01*
X57344Y75707D02*X57954Y76317D01*
X56124Y75707D02*X57344D01*
X55514Y76317D02*X56124Y75707D01*
X55514Y76317D02*Y77537D01*
X56124Y78147D01*
X57344D01*
X57954Y77537D01*
X55514Y79367D02*X56124Y79977D01*
X57344D01*
X57954Y79367D01*
Y75707D02*Y79367D01*
X61248Y75707D02*X61858Y76317D01*
X60028Y75707D02*X61248D01*
X59418Y76317D02*X60028Y75707D01*
X59418Y76317D02*Y77537D01*
X60028Y78147D01*
X61858Y75707D02*Y77537D01*
X62468Y78147D01*
X60028D02*X61248D01*
X61858Y77537D01*
X64542Y76317D02*Y78147D01*
Y76317D02*X65152Y75707D01*
X65762D01*
X66372Y76317D01*
Y78147D01*
X63932Y75707D02*X64542Y76317D01*
X25197Y62854D02*X25807Y62244D01*
X27637D01*
X28247Y62854D01*
Y64074D01*
X25197Y67124D02*X28247Y64074D01*
X25197Y67124D02*X28247D01*
X29711Y66514D02*X30321Y67124D01*
X29711Y62854D02*Y66514D01*
Y62854D02*X30321Y62244D01*
X31541D01*
X32151Y62854D01*
Y66514D01*
X31541Y67124D02*X32151Y66514D01*
X30321Y67124D02*X31541D01*
X29711Y65904D02*X32151Y63464D01*
X33615Y63220D02*X34591Y62244D01*
Y67124D01*
X33615D02*X35445D01*
X36909Y62244D02*X39349D01*
X36909D02*Y64684D01*
X37519Y64074D01*
X38739D01*
X39349Y64684D01*
Y66514D01*
X38739Y67124D02*X39349Y66514D01*
X37519Y67124D02*X38739D01*
X36909Y66514D02*X37519Y67124D01*
X40813Y66514D02*X44473Y62854D01*
X45937Y66514D02*X46547Y67124D01*
X45937Y62854D02*Y66514D01*
Y62854D02*X46547Y62244D01*
X47767D01*
X48377Y62854D01*
Y66514D01*
X47767Y67124D02*X48377Y66514D01*
X46547Y67124D02*X47767D01*
X45937Y65904D02*X48377Y63464D01*
X50451Y67124D02*X52281Y64684D01*
Y62854D02*Y64684D01*
X51671Y62244D02*X52281Y62854D01*
X50451Y62244D02*X51671D01*
X49841Y62854D02*X50451Y62244D01*
X49841Y62854D02*Y64074D01*
X50451Y64684D01*
X52281D01*
X53745Y66514D02*X57405Y62854D01*
X58869Y66514D02*X59479Y67124D01*
X58869Y62854D02*Y66514D01*
Y62854D02*X59479Y62244D01*
X60699D01*
X61309Y62854D01*
Y66514D01*
X60699Y67124D02*X61309Y66514D01*
X59479Y67124D02*X60699D01*
X58869Y65904D02*X61309Y63464D01*
X62773Y65294D02*X65213Y62244D01*
X62773Y65294D02*X65823D01*
X65213Y62244D02*Y67124D01*
X49028Y47165D02*X49528Y47665D01*
X47528Y47165D02*X49028D01*
X47028Y47665D02*X47528Y47165D01*
X47028Y47665D02*Y48665D01*
X47528Y49165D01*
X49028D01*
X49528Y49665D01*
Y50665D01*
X49028Y51165D02*X49528Y50665D01*
X47528Y51165D02*X49028D01*
X47028Y50665D02*X47528Y51165D01*
X50728Y47965D02*X51528Y47165D01*
Y51165D01*
X50728D02*X52228D01*
X3086Y3687D02*X5086D01*
X4086D02*Y7687D01*
X6286Y4487D02*X7086Y3687D01*
Y7687D01*
X6286D02*X7786D01*
M02*
