G04 start of page 3 for group 1 idx 1 *
G04 Title: (unknown), solder *
G04 Creator: pcb 20140316 *
G04 CreationDate: Sat Sep  5 02:44:50 2015 UTC *
G04 For: dima *
G04 Format: Gerber/RS-274X *
G04 PCB-Dimensions (mil): 944.88 944.88 *
G04 PCB-Coordinate-Origin: lower left *
%MOIN*%
%FSLAX25Y25*%
%LNBOTTOM*%
%ADD48C,0.0200*%
%ADD47C,0.0350*%
%ADD46C,0.0439*%
%ADD45C,0.0600*%
%ADD44C,0.0787*%
%ADD43C,0.0001*%
%ADD42C,0.0565*%
%ADD41C,0.0494*%
%ADD40C,0.0336*%
%ADD39C,0.0250*%
%ADD38C,0.0730*%
%ADD37C,0.0100*%
G54D37*X44488Y68110D02*X31496Y55118D01*
X50787Y70866D02*X62992Y58661D01*
X56299Y58268D02*X53543Y55512D01*
G54D38*Y33071D01*
G54D37*X62992Y58661D02*Y55906D01*
X44094Y67717D02*X46850Y70472D01*
X50787D01*
G54D39*X53543Y18110D02*X48819D01*
G54D40*X62992Y40157D02*X54724Y31890D01*
G54D41*X43307Y39370D02*X49213Y33465D01*
G54D39*X48881Y18110D02*X48361D01*
X43963Y22508D01*
X53937Y31102D02*X33071D01*
X32677Y30709D01*
G54D41*X31496Y39370D02*X43701D01*
G54D39*X53207Y18110D02*X71648Y36551D01*
Y45256D01*
G54D42*X67717Y22441D02*X72441Y17717D01*
G54D43*G36*
X28543Y58071D02*Y52165D01*
X34449D01*
Y58071D01*
X28543D01*
G37*
G36*
Y42323D02*Y36417D01*
X34449D01*
Y42323D01*
X28543D01*
G37*
G54D44*X15074Y23872D02*X18257Y20024D01*
X12399Y28088D02*X15074Y23872D01*
X10273Y32606D02*X12399Y28088D01*
X8730Y37355D02*X10273Y32606D01*
X7794Y42260D02*X8730Y37355D01*
X7480Y47244D02*X7794Y42260D01*
X7480Y47244D02*X7794Y52228D01*
X8730Y57133D01*
X10273Y61882D01*
X12399Y66400D01*
X15074Y70617D01*
X18257Y74464D01*
X21898Y77883D01*
X25937Y80818D01*
X30313Y83224D01*
X34956Y85062D01*
X39793Y86304D01*
X44747Y86930D01*
X49741D01*
X54695Y86304D01*
X59532Y85062D01*
X64175Y83224D01*
X68551Y80818D01*
X72591Y77883D01*
X76231Y74464D01*
X79414Y70617D01*
X82089Y66400D01*
X84215Y61882D01*
G54D43*G36*
X60039Y42323D02*Y36417D01*
X65945D01*
Y42323D01*
X60039D01*
G37*
G36*
Y58071D02*Y52165D01*
X65945D01*
Y58071D01*
X60039D01*
G37*
G54D44*X84215Y61882D02*X85759Y57133D01*
X86694Y52228D01*
X87008Y47244D01*
X86694Y42260D02*X87008Y47244D01*
X85759Y37355D02*X86694Y42260D01*
X84215Y32606D02*X85759Y37355D01*
X82089Y28088D02*X84215Y32606D01*
X79414Y23872D02*X82089Y28088D01*
X76231Y20024D02*X79414Y23872D01*
X72591Y16606D02*X76231Y20024D01*
X68551Y13670D02*X72591Y16606D01*
X64175Y11265D02*X68551Y13670D01*
X59532Y9426D02*X64175Y11265D01*
X54695Y8185D02*X59532Y9426D01*
X49741Y7559D02*X54695Y8185D01*
X44747Y7559D02*X49741D01*
X39793Y8185D02*X44747Y7559D01*
X34956Y9426D02*X39793Y8185D01*
X30313Y11265D02*X34956Y9426D01*
X25937Y13670D02*X30313Y11265D01*
X21898Y16606D02*X25937Y13670D01*
X18257Y20024D02*X21898Y16606D01*
G54D45*X32677Y30709D03*
X71738Y45592D03*
X43963Y22508D03*
X53937Y31102D03*
X67636Y65359D03*
X35370Y71432D03*
X50787Y70866D03*
G54D46*X56299Y58268D03*
G54D45*X67717Y22441D03*
G54D47*G54D48*G54D47*M02*
